<svg width="213" height="338" viewBox="0 0 213 338" fill="none" xmlns="http://www.w3.org/2000/svg">
<rect x="65.8054" y="132.807" width="147.165" height="205.193" fill="#D9D9D9"/>
<path d="M45.4656 128.619L4.18774 68.1982V337.701H66.1046V133.405H212.97V128.619H45.4656Z" fill="#EEEEEE"/>
<path d="M148.361 65.207H0V337.402H4.18761V67.8991L45.7646 128.619H189.041L148.361 65.207Z" fill="#D9D9D9"/>
<g filter="url(#filter0_i_164_7167)">
<path d="M65.8054 92.1274H125.894L132.209 101.101H72.5032L65.8054 92.1274Z" fill="#545050"/>
</g>
<path d="M103.195 0L53.8406 15.8531L74.4795 82.2566L124.133 66.7027L103.195 0Z" fill="#F9D9DC"/>
<path d="M74.1805 43.6707L71.7876 48.1575L95.1186 61.0194L103.195 22.1344L98.1097 20.938L91.8283 53.5415L74.1805 43.6707Z" fill="#CFA0A4"/>
<defs>
<filter id="filter0_i_164_7167" x="65.8054" y="92.1274" width="66.4036" height="8.97363" filterUnits="userSpaceOnUse" color-interpolation-filters="sRGB">
<feFlood flood-opacity="0" result="BackgroundImageFix"/>
<feBlend mode="normal" in="SourceGraphic" in2="BackgroundImageFix" result="shape"/>
<feColorMatrix in="SourceAlpha" type="matrix" values="0 0 0 0 0 0 0 0 0 0 0 0 0 0 0 0 0 0 127 0" result="hardAlpha"/>
<feOffset dy="4"/>
<feComposite in2="hardAlpha" operator="arithmetic" k2="-1" k3="1"/>
<feColorMatrix type="matrix" values="0 0 0 0 0 0 0 0 0 0 0 0 0 0 0 0 0 0 0.25 0"/>
<feBlend mode="normal" in2="shape" result="effect1_innerShadow_164_7167"/>
</filter>
</defs>
</svg>
