<svg version="1.0" xmlns="http://www.w3.org/2000/svg" width="47pt" height="39pt" viewBox="0 0 150.000000 132.000000" preserveAspectRatio="xMidYMid meet">
<metadata>
Created by potrace 1.10, written by Peter Selinger 2001-2011
</metadata>
<g transform="translate(0.000000,132.000000) scale(0.100000,-0.100000)" fill="#000000" stroke="none">
<path d="M250 1151 c-11 -8 -14 -35 -12 -138 2 -70 8 -150 14 -178 12 -50 59 -132 101 -176 13 -13 38 -44 57 -69 101 -133 135 -170 167 -181 52 -17 98 -4 133 39 38 46 40 99 5 157 -14 22 -27 45 -29 50 -2 6 -7 17 -10 25 -4 8 -30 60 -60 115 -51 97 -54 100 -87 100 -30 0 -34 -4 -37 -27 -2 -17 9 -49 30 -85 19 -32 37 -65 41 -73 4 -8 23 -42 42 -75 65 -110 67 -137 12 -143 -22 -3 -37 12 -118 120 -51 68 -95 125 -98 128 -10 9 -47 64 -56 85 -6 11 -12 90 -15 175 l-5 155 -30 3 c-16 1 -37 -2 -45 -7z"/>
<path d="M580 1144 c0 -9 35 -51 78 -93 147 -147 222 -231 237 -268 20 -48 10 -54 -82 -46 -82 7 -85 4 -52 -51 l21 -36 144 0 144 0 0 -207 0 -208 -330 0 -330 0 0 113 0 113 -37 49 c-21 28 -41 50 -47 50 -5 0 -7 -48 -3 -120 l5 -120 -57 0 c-48 0 -63 -4 -85 -25 -42 -39 -32 -101 22 -129 23 -12 114 -14 531 -14 555 0 563 0 576 58 15 69 -24 109 -105 110 l-56 0 4 190 c4 176 3 192 -14 212 -16 17 -27 20 -79 15 -77 -6 -85 -3 -85 40 0 41 -45 113 -118 188 -26 28 -72 77 -102 110 -65 73 -83 84 -137 85 -33 0 -43 -4 -43 -16z"/>
</g>
</svg>