<svg version="1.0" xmlns="http://www.w3.org/2000/svg" width="64pt" height="64pt" viewBox="0 0 195.000000 195.000000" preserveAspectRatio="xMidYMid meet">
<metadata>
Created by potrace 1.10, written by Peter Selinger 2001-2011
</metadata>
<g transform="translate(0.000000,195.000000) scale(0.100000,-0.100000)" fill="#000000" stroke="none">
<path d="M917 1603 c-51 -49 -138 -134 -194 -188 -57 -54 -103 -106 -103 -116 0 -9 14 -29 31 -43 29 -25 31 -25 54 -8 13 9 70 63 127 119 92 92 104 101 116 86 10 -14 12 -154 12 -653 0 -349 0 -641 0 -648 0 -9 15 -12 53 -10 l52 3 5 660 c4 494 8 660 17 660 6 0 60 -47 120 -105 150 -146 138 -139 173 -105 17 16 30 36 30 45 0 15 -368 380 -391 388 -6 2 -51 -36 -102 -85z"/>
</g>
</svg>