<?xml version="1.0" standalone="no"?>
<!DOCTYPE svg PUBLIC "-//W3C//DTD SVG 20010904//EN"
 "http://www.w3.org/TR/2001/REC-SVG-20010904/DTD/svg10.dtd">
<svg version="1.0" xmlns="http://www.w3.org/2000/svg"
 width="65.000000pt" height="65.000000pt" viewBox="0 0 65.000000 65.000000"
 preserveAspectRatio="xMidYMid meet">
<metadata>
Created by potrace 1.10, written by Peter Selinger 2001-2011
</metadata>
<g transform="translate(0.000000,65.000000) scale(0.100000,-0.100000)"
fill="#000000" stroke="none">
<path d="M267 502 c-62 -62 -67 -70 -52 -82 15 -13 22 -9 61 32 l44 47 0 -225
c0 -217 1 -224 20 -224 19 0 20 7 20 228 l0 227 47 -48 c40 -42 48 -47 60 -34
12 12 6 22 -52 78 -37 35 -70 65 -73 66 -4 1 -38 -28 -75 -65z"/>
</g>
</svg>
